PathFileType	4	(X/Y/Z)	C:\Users\86182\Documents\cortex\Trimmed_M4_H8.trc
DataRate	CameraRate	NumFrames	NumMarkers	Units	OrigDataRate	OrigDataStartFrame	OrigNumFrames
100.00	100.00	       155	2	mm	100.00	181	       901
Frame#	Time	gripper			box			
		X1	Y1	Z1	X2	Y2	Z2	

181	1.800	277.37109	150.07050	222.34793	279.74503	147.38988	84.97646	
182	1.810	277.39023	150.08226	222.79445	279.71497	147.41481	85.44046	
183	1.820	277.37836	150.10379	223.24776	279.70523	147.43800	85.89193	
184	1.830	277.34393	150.13148	223.70309	279.70581	147.45789	86.33223	
185	1.840	277.28183	150.16359	224.16141	279.70856	147.47198	86.76070	
186	1.850	277.19028	150.19858	224.62328	279.70944	147.47922	87.17794	
187	1.860	277.09018	150.23222	225.08192	279.70728	147.48167	87.58752	
188	1.870	277.01187	150.25941	225.52814	279.70084	147.48285	87.99420	
189	1.880	276.97552	150.27652	225.95660	279.68863	147.48425	88.40202	
190	1.890	276.98798	150.28125	226.36650	279.67087	147.48450	88.81268	
191	1.900	277.04425	150.27405	226.76149	279.65045	147.48172	89.22562	
192	1.910	277.12592	150.26003	227.15057	279.63089	147.47665	89.64079	
193	1.920	277.19913	150.24860	227.54843	279.61313	147.47285	90.06078	
194	1.930	277.22333	150.24989	227.97141	279.59543	147.47430	90.48952	
195	1.940	277.17877	150.26877	228.42644	279.57645	147.48312	90.92858	
196	1.950	277.08279	150.30208	228.90494	279.55655	147.49870	91.37495	
197	1.960	276.96774	150.34312	229.39131	279.53540	147.51799	91.82357	
198	1.970	276.85620	150.38635	229.87325	279.51001	147.53732	92.27179	
199	1.980	276.75980	150.42755	230.34399	279.47693	147.55466	92.71920	
200	1.990	276.68344	150.46327	230.80106	279.43619	147.56963	93.16414	
201	2.000	276.62625	150.49159	231.24438	279.38989	147.58177	93.60295	
202	2.010	276.58405	150.51265	231.67476	279.33856	147.58960	94.03236	
203	2.020	276.55353	150.52777	232.09378	279.28113	147.59096	94.45188	
204	2.030	276.53271	150.53818	232.50412	279.21860	147.58376	94.86425	
205	2.040	276.51965	150.54453	232.90889	279.15540	147.56775	95.27374	
206	2.050	276.51251	150.54747	233.31100	279.09714	147.54616	95.68423	
207	2.060	276.51059	150.54781	233.71338	279.04749	147.52496	96.09866	
208	2.070	276.51437	150.54654	234.11876	279.00720	147.50948	96.51891	
209	2.080	276.52435	150.54523	234.52913	278.97687	147.50211	96.94525	
210	2.090	276.54022	150.54561	234.94609	278.95850	147.50327	97.37686	
211	2.100	276.56110	150.54922	235.37158	278.95313	147.51279	97.81347	
212	2.110	276.58618	150.55730	235.80719	278.95731	147.53030	98.25602	
213	2.120	276.61392	150.57053	236.25293	278.96481	147.55501	98.70422	
214	2.130	276.64063	150.58931	236.70758	278.97150	147.58511	99.15486	
215	2.140	276.66138	150.61362	237.16887	278.97720	147.61736	99.60419	
216	2.150	276.67343	150.64284	237.63339	278.98328	147.64772	100.05080	
217	2.160	276.67697	150.67516	238.09732	278.98990	147.67365	100.49561	
218	2.170	276.67273	150.70773	238.55714	278.99533	147.69507	100.93958	
219	2.180	276.66104	150.73802	239.00977	278.99704	147.71272	101.38116	
220	2.190	276.64313	150.76468	239.45322	278.99319	147.72685	101.81634	
221	2.200	276.62085	150.78740	239.88765	278.98401	147.73801	102.24261	
222	2.210	276.59656	150.80618	240.31398	278.97104	147.74767	102.66235	
223	2.220	276.57321	150.82088	240.73253	278.95483	147.75717	103.08081	
224	2.230	276.55356	150.83153	241.14438	278.93402	147.76692	103.50050	
225	2.240	276.53848	150.83900	241.55255	278.90683	147.77637	103.91894	
226	2.250	276.52704	150.84499	241.96054	278.87402	147.78455	104.33273	
227	2.260	276.51834	150.85077	242.37082	278.84000	147.79027	104.74252	
228	2.270	276.51303	150.85597	242.78514	278.81110	147.79253	105.15352	
229	2.280	276.51205	150.85822	243.20471	278.79297	147.79095	105.57122	
230	2.290	276.51489	150.85533	243.63029	278.78845	147.78604	105.99729	
231	2.300	276.51996	150.84746	244.06250	278.79700	147.77887	106.42940	
232	2.310	276.52570	150.83649	244.50156	278.81586	147.77069	106.86384	
233	2.320	276.53052	150.82375	244.94585	278.84244	147.76268	107.29813	
234	2.330	276.53320	150.80885	245.39200	278.87427	147.75603	107.73267	
235	2.340	276.53339	150.79092	245.83765	278.90741	147.75180	108.16953	
236	2.350	276.53006	150.77077	246.28223	278.93579	147.75060	108.60858	
237	2.360	276.52023	150.75069	246.72473	278.95377	147.75201	109.04588	
238	2.370	276.50125	150.73219	247.16286	278.96069	147.75479	109.47729	
239	2.380	276.47415	150.71498	247.59442	278.96133	147.75751	109.90230	
240	2.390	276.44214	150.69820	248.01854	278.96021	147.75937	110.32313	
241	2.400	276.40698	150.68231	248.43616	278.95697	147.76028	110.74119	
242	2.410	276.36874	150.66927	248.84955	278.94769	147.76007	111.15511	
243	2.420	276.32785	150.66077	249.26050	278.93015	147.75812	111.56210	
244	2.430	276.28610	150.65660	249.66878	278.90607	147.75420	111.96095	
245	2.440	276.24606	150.65456	250.07420	278.87915	147.74951	112.35445	
246	2.450	276.21140	150.65254	250.47964	278.85297	147.74605	112.74921	
247	2.460	276.18637	150.65070	250.88974	278.83066	147.74478	113.15189	
248	2.470	276.17264	150.65094	251.30734	278.81558	147.74553	113.56471	
249	2.480	276.16791	150.65459	251.73190	278.80975	147.74820	113.98522	
250	2.490	276.16956	150.66100	252.16087	278.81226	147.75337	114.41075	
251	2.500	276.17719	150.66869	252.59274	278.82037	147.76146	114.84189	
252	2.510	276.18991	150.67653	253.02821	278.83194	147.77184	115.28002	
253	2.520	276.20514	150.68387	253.46841	278.84537	147.78270	115.72310	
254	2.530	276.22049	150.69038	253.91220	278.85788	147.79240	116.16632	
255	2.540	276.23471	150.69620	254.35666	278.86630	147.80089	116.60632	
256	2.550	276.24756	150.70197	254.79987	278.86981	147.80969	117.04294	
257	2.560	276.25970	150.70834	255.24170	278.87097	147.81993	117.47768	
258	2.570	276.27115	150.71547	255.68146	278.87360	147.83081	117.91141	
259	2.580	276.28024	150.72343	256.11642	278.87912	147.84108	118.34305	
260	2.590	276.28436	150.73279	256.54398	278.88480	147.85094	118.77001	
261	2.600	276.28226	150.74397	256.96466	278.88693	147.86137	119.19067	
262	2.610	276.27548	150.75620	257.38147	278.88486	147.87233	119.60634	
263	2.620	276.26788	150.76746	257.79715	278.88089	147.88237	120.02009	
264	2.630	276.26254	150.77577	258.21231	278.87643	147.88998	120.43340	
265	2.640	276.25940	150.78096	258.62628	278.86957	147.89505	120.84527	
266	2.650	276.25754	150.78481	259.03860	278.85712	147.89903	121.25547	
267	2.660	276.25861	150.78912	259.45071	278.83936	147.90477	121.66704	
268	2.670	276.26575	150.79391	259.86523	278.82013	147.91542	122.08447	
269	2.680	276.28040	150.79805	260.28387	278.80359	147.93271	122.51079	
270	2.690	276.30087	150.80133	260.70715	278.79208	147.95526	122.94653	
271	2.700	276.32318	150.80511	261.13544	278.78647	147.97990	123.38924	
272	2.710	276.34329	150.81091	261.56940	278.78693	148.00424	123.83429	
273	2.720	276.35925	150.81844	262.00873	278.79294	148.02692	124.27851	
274	2.730	276.37109	150.82594	262.45206	278.80212	148.04657	124.72246	
275	2.740	276.37985	150.83232	262.89734	278.80981	148.06235	125.16800	
276	2.750	276.38614	150.83846	263.34232	278.81076	148.07475	125.61453	
277	2.760	276.38986	150.84637	263.78564	278.80093	148.08456	126.05915	
278	2.770	276.39163	150.85695	264.22668	278.77914	148.09221	126.49955	
279	2.780	276.39349	150.86902	264.66360	278.74728	148.09811	126.93536	
280	2.790	276.39655	150.88054	265.09296	278.70844	148.10220	127.36715	
281	2.800	276.39905	150.89014	265.51300	278.66483	148.10280	127.79518	
282	2.810	276.39792	150.89799	265.92484	278.61823	148.09775	128.21838	
283	2.820	276.39182	150.90515	266.33118	278.57047	148.08705	128.63548	
284	2.830	276.38297	150.91185	266.73459	278.52301	148.07387	129.04739	
285	2.840	276.37500	150.91711	267.13699	278.47702	148.06201	129.45758	
286	2.850	276.37012	150.92027	267.53931	278.43457	148.05260	129.86980	
287	2.860	276.36856	150.92189	267.94247	278.39822	148.04317	130.28615	
288	2.870	276.37009	150.92268	268.34875	278.36899	148.02979	130.70686	
289	2.880	276.37415	150.92194	268.76126	278.34598	148.01076	131.13110	
290	2.890	276.37930	150.91794	269.18179	278.32767	147.98856	131.55838	
291	2.900	276.38428	150.90981	269.60962	278.31396	147.96777	131.98894	
292	2.910	276.38852	150.89818	270.04330	278.30637	147.95148	132.42288	
293	2.920	276.39157	150.88422	270.48187	278.30569	147.93991	132.85966	
294	2.930	276.39249	150.86937	270.92398	278.31027	147.93187	133.29828	
295	2.940	276.39038	150.85573	271.36850	278.31763	147.92696	133.73824	
296	2.950	276.38364	150.84569	271.81509	278.32645	147.92656	134.17996	
297	2.960	276.36948	150.84102	272.26321	278.33600	147.93231	134.62375	
298	2.970	276.34598	150.84248	272.71191	278.34457	147.94363	135.06862	
299	2.980	276.31320	150.85023	273.16083	278.34921	147.95741	135.51233	
300	2.990	276.27219	150.86465	273.60931	278.34787	147.97043	135.95282	
301	3.000	276.22464	150.88582	274.05536	278.34055	147.98201	136.38937	
302	3.010	276.17328	150.91240	274.49686	278.32706	147.99428	136.82246	
303	3.020	276.12161	150.94154	274.93286	278.30527	148.00969	137.25256	
304	3.030	276.07214	150.96962	275.36298	278.27393	148.02916	137.67883	
305	3.040	276.02567	150.99307	275.78775	278.23599	148.05202	138.10002	
306	3.050	275.98206	151.00992	276.20966	278.19705	148.07608	138.51666	
307	3.060	275.94147	151.02026	276.63129	278.16269	148.09799	138.93114	
308	3.070	275.90411	151.02492	277.05402	278.13730	148.11546	139.34616	
309	3.080	275.87128	151.02469	277.47867	278.12314	148.12946	139.76378	
310	3.090	275.84613	151.02138	277.90582	278.11859	148.14272	140.18478	
311	3.100	275.83203	151.01758	278.33469	278.11978	148.15662	140.60806	
312	3.110	275.82971	151.01471	278.76361	278.12460	148.17033	141.03195	
313	3.120	275.83847	151.01260	279.19171	278.13467	148.18230	141.45639	
314	3.130	275.85788	151.01079	279.61929	278.15244	148.19107	141.88277	
315	3.140	275.88531	151.00867	280.04709	278.17731	148.19583	142.31129	
316	3.150	275.91534	151.00545	280.47534	278.20557	148.19757	142.74031	
317	3.160	275.94333	151.00092	280.90332	278.23331	148.19872	143.16875	
318	3.170	275.96793	150.99573	281.33008	278.25769	148.20102	143.59738	
319	3.180	275.98978	150.99083	281.75537	278.27689	148.20505	144.02716	
320	3.190	276.00943	150.98744	282.18018	278.28986	148.21132	144.45787	
321	3.200	276.02646	150.98708	282.60504	278.29501	148.22035	144.88885	
322	3.210	276.03958	150.99077	283.02899	278.28976	148.23158	145.31897	
323	3.220	276.04758	150.99835	283.45013	278.27322	148.24326	145.74586	
324	3.230	276.04980	151.00890	283.86743	278.24942	148.25345	146.16733	
325	3.240	276.04596	151.02132	284.28165	278.22540	148.26147	146.58353	
326	3.250	276.03641	151.03487	284.69437	278.20505	148.26865	146.99658	
327	3.260	276.02304	151.04866	285.10626	278.18594	148.27698	147.40811	
328	3.270	276.00940	151.06140	285.51709	278.16406	148.28706	147.81821	
329	3.280	275.99899	151.07214	285.92667	278.14035	148.29752	148.22655	
330	3.290	275.99344	151.08131	286.33572	278.12033	148.30679	148.63307	
331	3.300	275.99216	151.09004	286.74500	278.10782	148.31448	149.03824	
332	3.310	275.99380	151.09868	287.15305	278.10175	148.32036	149.44254	
333	3.320	275.99826	151.10619	287.55652	278.09985	148.32365	149.84518	
334	3.330	276.00607	151.11070	287.95285	278.10223	148.32373	150.24316	
335	3.340	276.01758	151.11131	288.34158	278.11023	148.32059	150.63278	
